<svg xmlns="http://www.w3.org/2000/svg" viewBox="0 0 120 120" width="120" height="120" role="img" aria-label="AGIChainAI logo">
  <defs>
    <linearGradient id="agicGrad" x1="0%" y1="0%" x2="100%" y2="100%">
      <stop offset="0%" stop-color="#00d8ff"/>
      <stop offset="100%" stop-color="#7c4dff"/>
    </linearGradient>
    <linearGradient id="agicNode" x1="0%" y1="0%" x2="100%" y2="100%">
      <stop offset="0%" stop-color="#30ffb2"/>
      <stop offset="100%" stop-color="#00d8ff"/>
    </linearGradient>
  </defs>
  <path d="M60 6 L106 32 L106 88 L60 114 L14 88 L14 32 Z"
        fill="none" stroke="url(#agicGrad)" stroke-width="6"
        stroke-linejoin="round"/>
  <path d="M60 22 L92 40 L92 80 L60 98 L28 80 L28 40 Z"
        fill="none" stroke="url(#agicGrad)" stroke-width="2"
        stroke-linejoin="round" opacity="0.35"/>
  <g stroke="url(#agicGrad)" stroke-width="2.5" stroke-linecap="round" opacity="0.85">
    <line x1="60" y1="60" x2="60" y2="34"/>
    <line x1="60" y1="60" x2="83" y2="47"/>
    <line x1="60" y1="60" x2="83" y2="73"/>
    <line x1="60" y1="60" x2="60" y2="86"/>
    <line x1="60" y1="60" x2="37" y2="73"/>
    <line x1="60" y1="60" x2="37" y2="47"/>
    <line x1="60" y1="34" x2="83" y2="47"/>
    <line x1="83" y1="73" x2="60" y2="86"/>
    <line x1="37" y1="73" x2="37" y2="47"/>
  </g>
  <g fill="url(#agicNode)">
    <circle cx="60" cy="34" r="5"/>
    <circle cx="83" cy="47" r="5"/>
    <circle cx="83" cy="73" r="5"/>
    <circle cx="60" cy="86" r="5"/>
    <circle cx="37" cy="73" r="5"/>
    <circle cx="37" cy="47" r="5"/>
  </g>
  <circle cx="60" cy="60" r="8" fill="url(#agicGrad)"/>
  <circle cx="60" cy="60" r="3.5" fill="#05070d"/>
</svg>
