<svg xmlns="http://www.w3.org/2000/svg" viewBox="0 0 48 48" width="48" height="48">
  <defs>
    <linearGradient id="icoMarket" x1="0%" y1="0%" x2="100%" y2="100%">
      <stop offset="0%" stop-color="#00d8ff"/>
      <stop offset="100%" stop-color="#7c4dff"/>
    </linearGradient>
  </defs>
  <g fill="none" stroke="url(#icoMarket)" stroke-width="2.6" stroke-linecap="round" stroke-linejoin="round">
    <path d="M8 20 L8 39 C8 40.1 8.9 41 10 41 L38 41 C39.1 41 40 40.1 40 39 L40 20"/>
    <path d="M6 13 L10 7 L38 7 L42 13 C42 16 39.8 18.5 36.7 18.5 C34.4 18.5 32.5 17.1 31.6 15.2 C30.8 17.1 28.9 18.5 26.6 18.5 C24.4 18.5 22.6 17.2 21.7 15.3 C20.8 17.2 19 18.5 16.8 18.5 C14.5 18.5 12.6 17.1 11.8 15.2 C10.9 17.1 9 18.5 6.8 18.5 Z" transform="translate(0.6,0)"/>
    <rect x="14" y="26" width="8" height="15" rx="1.5"/>
  </g>
  <rect x="27" y="26" width="8" height="8" rx="1.5" fill="none" stroke="#30ffb2" stroke-width="2.4"/>
</svg>
